<?xml version="1.0" standalone="no"?><!DOCTYPE svg PUBLIC "-//W3C//DTD SVG 1.1//EN" "http://www.w3.org/Graphics/SVG/1.1/DTD/svg11.dtd"><svg t="1676943894762" class="icon" viewBox="0 0 1024 1024" version="1.1" xmlns="http://www.w3.org/2000/svg" p-id="3699" data-spm-anchor-id="a313x.7781069.0.i1" xmlns:xlink="http://www.w3.org/1999/xlink" width="200" height="200"><path d="M933.76 531.52H534.72a46.72 46.72 0 0 1-47.488-47.552V81.664c0-12.672 4.736-25.344 14.208-34.88 9.536-9.472 22.208-12.672 34.88-12.672a472.32 472.32 0 0 1 443.52 446.72c0 12.672-3.2 25.344-12.672 34.816-9.536 9.536-20.608 15.872-33.28 15.872zM582.272 436.48h297.728a380.8 380.8 0 0 0-297.728-300.992V436.48z" fill="#fc8800" p-id="3700" data-spm-anchor-id="a313x.7781069.0.i2" class=""></path><path d="M507.712 981.312c-261.312 0-473.6-213.76-473.6-473.6A474.56 474.56 0 0 1 390.528 48.384a47.232 47.232 0 1 1 22.144 91.904 378.496 378.496 0 0 0-283.52 367.424c0 207.488 169.472 378.56 378.56 378.56a379.392 379.392 0 0 0 365.888-281.92 46.72 46.72 0 0 1 58.624-33.28 46.72 46.72 0 0 1 33.28 58.624c-53.888 205.888-242.368 351.616-457.792 351.616z" fill="#3865ab" p-id="3701" data-spm-anchor-id="a313x.7781069.0.i0" class="selected"></path></svg>