<?xml version="1.0" standalone="no"?><!DOCTYPE svg PUBLIC "-//W3C//DTD SVG 1.1//EN" "http://www.w3.org/Graphics/SVG/1.1/DTD/svg11.dtd"><svg t="1676887753677" class="icon" viewBox="0 0 1024 1024" version="1.1" xmlns="http://www.w3.org/2000/svg" p-id="29286" xmlns:xlink="http://www.w3.org/1999/xlink" width="200" height="200"><path d="M511.189333 617.6a106.112 106.112 0 0 1-74.88-32.554667 106.24 106.24 0 0 1 0-148.181333c34.432-34.432 318.805333-209.621333 351.146667-229.504a21.333333 21.333333 0 0 1 29.312 29.397333c-19.84 32.298667-194.944 316.501333-229.418667 350.72a106.282667 106.282667 0 0 1-74.282666 30.165334l-1.877334-0.042667z m221.44-326.058667c-118.698667 74.069333-247.424 156.757333-265.898666 175.232-23.893333 24.746667-23.808 63.744 0.256 88.661334a63.573333 63.573333 0 0 0 44.928 19.541333h1.109333c16.64 0 32.426667-6.357333 44.416-17.92 18.56-18.517333 101.205333-147.029333 175.189333-265.514667zM149.333333 533.333333a21.333333 21.333333 0 0 1 0-42.666666H213.333333a21.333333 21.333333 0 0 1 0 42.666666H149.333333zM300.8 322.133333a21.333333 21.333333 0 0 1-15.104-6.229333l-45.226667-45.226667a21.333333 21.333333 0 0 1 15.104-36.437333 21.333333 21.333333 0 0 1 15.104 6.229333l45.226667 45.226667a21.333333 21.333333 0 0 1-15.104 36.437333zM512 234.666667a21.333333 21.333333 0 0 1-21.333333-21.333334V149.333333a21.333333 21.333333 0 0 1 42.666666 0V213.333333a21.333333 21.333333 0 0 1-21.333333 21.333334zM810.666667 533.333333a21.333333 21.333333 0 0 1 0-42.666666h64a21.333333 21.333333 0 0 1 0 42.666666H810.666667z" p-id="29287" data-spm-anchor-id="a313x.7781069.0.i25" class="selected" fill="#fc8800"></path><path d="M512 1024a512.512 512.512 0 0 1-382.421333-172.032 14.378667 14.378667 0 0 1-3.498667-3.541333l-0.810667-1.365334A511.616 511.616 0 0 1 0 512C0 229.674667 229.674667 0 512 0s512 229.674667 512 512c0 122.922667-44.458667 241.792-125.226667 334.933333a22.186667 22.186667 0 0 1-5.376 6.186667A512.64 512.64 0 0 1 512 1024z m-335.189333-183.936C264.917333 930.005333 386.346667 981.333333 512 981.333333s247.082667-51.328 335.189333-141.269333a604.245333 604.245333 0 0 0-334.762666-93.44c-4.181333-0.085333-7.978667-0.085333-11.776-0.085333-115.2 0.042667-226.858667 32.298667-323.84 93.525333z m346.581333-136.149333c125.653333 0 247.338667 35.882667 352.554667 103.936A469.034667 469.034667 0 0 0 981.333333 512c0-258.773333-210.56-469.333333-469.333333-469.333333S42.666667 253.226667 42.666667 512c0 107.605333 37.333333 212.266667 105.386666 295.850667a647.424 647.424 0 0 1 352.64-103.936l11.733334 0.085333 10.965333-0.085333z" p-id="29288" data-spm-anchor-id="a313x.7781069.0.i23" class="" fill="#3865ab"></path></svg>