<?xml version="1.0" standalone="no"?><!DOCTYPE svg PUBLIC "-//W3C//DTD SVG 1.1//EN" "http://www.w3.org/Graphics/SVG/1.1/DTD/svg11.dtd"><svg t="1676888409213" class="icon" viewBox="0 0 1024 1024" version="1.1" xmlns="http://www.w3.org/2000/svg" p-id="9553" data-spm-anchor-id="a313x.7781069.0.i11" xmlns:xlink="http://www.w3.org/1999/xlink" width="200" height="200"><path d="M207.957333 544A48 48 0 0 0 256 496.042667v-0.042667a48 48 0 1 0-48.042667 48zM271.957333 384A48 48 0 0 0 320 336.042667v-0.042667A48 48 0 1 0 271.957333 384z" p-id="9554" data-spm-anchor-id="a313x.7781069.0.i7" class="selected" fill="#fc8800"></path><path d="M816.042667 496m-48 0a48 48 0 1 0 96 0 48 48 0 1 0-96 0Z" p-id="9555" data-spm-anchor-id="a313x.7781069.0.i10" class="selected" fill="#fc8800"></path><path d="M752.042667 336m-48 0a48 48 0 1 0 96 0 48 48 0 1 0-96 0Z" p-id="9556" data-spm-anchor-id="a313x.7781069.0.i9" class="selected" fill="#fc8800"></path><path d="M399.957333 256A48 48 0 0 0 448 208.042667v-0.042667A48 48 0 1 0 399.957333 256z" p-id="9557" data-spm-anchor-id="a313x.7781069.0.i8" class="selected" fill="#fc8800"></path><path d="M941.44 789.76A508.629333 508.629333 0 0 0 1023.957333 512c0-282.325333-229.674667-512-512-512s-512 229.674667-512 512c0 102.314667 30.506667 197.504 82.389334 277.589333 0.64 1.066667 0.810667 2.304 1.578666 3.328 0.256 0.341333 0.64 0.426667 0.896 0.768C176.554667 932.266667 333.653333 1024 511.957333 1024c178.261333 0 335.36-91.690667 427.093334-230.272 0.256-0.341333 0.682667-0.469333 0.938666-0.810667 0.682667-0.981333 0.853333-2.133333 1.450667-3.157333zM511.957333 64c247.04 0 448 200.96 448 448 0 78.336-20.309333 151.936-55.765333 216.064a698.752 698.752 0 0 0-233.472-100.906667 159.317333 159.317333 0 0 0-116.394667-140.714666l84.096-252.288a32 32 0 0 0-60.757333-20.266667l-89.472 268.544a159.36 159.36 0 0 0-134.869333 144.682667 698.026667 698.026667 0 0 0-233.557334 100.949333A444.714667 444.714667 0 0 1 63.957333 512c0-247.04 200.96-448 448-448zM512 544c44.416 0 81.536 30.464 92.416 71.509333a713.173333 713.173333 0 0 0-184.874667 0A95.957333 95.957333 0 0 1 512 544z m-0.042667 416c-145.834667 0-275.2-70.357333-357.077333-178.56 214.656-144.128 499.541333-144.085333 714.112 0-81.834667 108.202667-211.2 178.56-357.034667 178.56z" p-id="9558" data-spm-anchor-id="a313x.7781069.0.i6" class="selected" fill="#3865ab"></path></svg>