<?xml version="1.0" standalone="no"?><!DOCTYPE svg PUBLIC "-//W3C//DTD SVG 1.1//EN" "http://www.w3.org/Graphics/SVG/1.1/DTD/svg11.dtd"><svg t="1676887924196" class="icon" viewBox="0 0 1024 1024" version="1.1" xmlns="http://www.w3.org/2000/svg" p-id="8891" data-spm-anchor-id="a313x.7781069.0.i0" xmlns:xlink="http://www.w3.org/1999/xlink" width="200" height="200"><path d="M992 1024H416a32 32 0 0 1 0-64h576a32 32 0 0 1 0 64zM928 544c-183.04 0-168.64 2.24-179.84-7.04l-137.92-110.08-107.52 107.84A32 32 0 0 1 480 544H32a32 32 0 0 1 0-64h434.88l118.4-118.72a32 32 0 0 1 42.56-2.24L779.2 480H928a32 32 0 0 1 0 64z" fill="#3865ab" p-id="8892" data-spm-anchor-id="a313x.7781069.0.i3" class="selected"></path><path d="M928 672a32 32 0 0 1-32-32v-256c-104.32 0-106.24 2.88-118.72-9.28L608 206.08 183.36 661.76A32 32 0 0 1 160 672H32a32 32 0 0 1 0-64h114.24l438.4-469.76a32 32 0 0 1 46.08 0l182.4 181.76H928a32 32 0 0 1 32 32v288a32 32 0 0 1-32 32z" fill="#fc8800" p-id="8893" data-spm-anchor-id="a313x.7781069.0.i1" class=""></path><path d="M608 672a32 32 0 0 1-32-32v-64a32 32 0 0 1 64 0v64a32 32 0 0 1-32 32zM608 864a32 32 0 0 1-32-32v-64a32 32 0 0 1 64 0v64a32 32 0 0 1-32 32zM928 864a32 32 0 0 1-32-32v-64a32 32 0 0 1 64 0v64a32 32 0 0 1-32 32zM288 1024H96a96 96 0 0 1-96-96V32a32 32 0 0 1 64 0v896a32 32 0 0 0 32 32h192a32 32 0 0 1 0 64z" fill="#3865ab" p-id="8894" data-spm-anchor-id="a313x.7781069.0.i4" class="selected"></path></svg>