<svg t="1685416383580" class="icon" viewBox="0 0 1024 1024" version="1.1" xmlns="http://www.w3.org/2000/svg" p-id="1887" width="200" height="200"><path d="M810.666667 128a213.333333 213.333333 0 0 1 213.333333 213.333333v469.333334a213.333333 213.333333 0 0 1-213.333333 213.333333H213.333333a213.333333 213.333333 0 0 1-213.333333-213.333333V341.333333a213.333333 213.333333 0 0 1 213.333333-213.333333h597.333334z m0 85.333333H213.333333a128 128 0 0 0-127.786666 120.490667L85.333333 341.333333v469.333334a128 128 0 0 0 120.490667 127.786666L213.333333 938.666667h597.333334a128 128 0 0 0 127.786666-120.490667L938.666667 810.666667V341.333333a128 128 0 0 0-120.490667-127.786666L810.666667 213.333333z m-192.682667 234.666667a42.666667 42.666667 0 0 1 4.992 85.034667l-4.992 0.298666H213.333333a42.666667 42.666667 0 0 1-4.992-85.034666L213.333333 448h404.650667zM467.626667 298.666667a42.666667 42.666667 0 0 1 4.949333 85.034666L467.669333 384H213.333333a42.666667 42.666667 0 0 1-4.992-85.034667L213.333333 298.666667h254.293334zM810.666667 0a42.666667 42.666667 0 0 1 4.992 85.034667L810.666667 85.333333H213.333333A42.666667 42.666667 0 0 1 208.341333 0.298667L213.333333 0h597.333334z" fill="#3865ab" p-id="1888"></path><path d="M812.757333 413.525333a42.666667 42.666667 0 0 1 82.432 21.461334l-1.28 4.821333-92.117333 284.757333a42.666667 42.666667 0 0 1-53.418667 27.562667l-4.693333-1.792-102.357333-46.08-73.514667 63.616a42.666667 42.666667 0 0 1-35.925333 9.642667l-5.418667-1.408-170.965333-56.661334-106.837334 157.824a42.666667 42.666667 0 0 1-54.954666 13.952l-4.266667-2.56a42.666667 42.666667 0 0 1-13.994667-54.954666l2.56-4.266667 125.013334-184.576a42.666667 42.666667 0 0 1 43.733333-17.92l4.992 1.365333 178.56 59.136 75.776-65.536a42.666667 42.666667 0 0 1 40.32-8.533333l5.12 1.877333 83.754667 37.674667 77.482666-239.36z" fill="#fc8800" p-id="1889"></path></svg>
