<svg t="1683765342836" class="icon" viewBox="0 0 1024 1024" version="1.1" xmlns="http://www.w3.org/2000/svg" p-id="2275" id="mx_n_1683765342838" width="200" height="200"><path d="M853.333333 1024 170.666667 1024c-93.866667 0-170.666667-76.8-170.666667-170.666667L0 170.666667c0-93.866667 76.8-170.666667 170.666667-170.666667l682.666667 0c93.866667 0 170.666667 76.8 170.666667 170.666667l0 682.666667C1024 947.2 947.2 1024 853.333333 1024zM170.666667 85.333333C123.733333 85.333333 85.333333 123.733333 85.333333 170.666667l0 682.666667c0 46.933333 38.4 85.333333 85.333333 85.333333l682.666667 0c46.933333 0 85.333333-38.4 85.333333-85.333333L938.666667 170.666667c0-46.933333-38.4-85.333333-85.333333-85.333333L170.666667 85.333333z" p-id="2276" data-spm-anchor-id="a313x.7781069.0.i10" class="" fill="#3865ab"></path><path d="M725.333333 341.333333 298.666667 341.333333C273.066667 341.333333 256 324.266667 256 298.666667s17.066667-42.666667 42.666667-42.666667l426.666667 0c25.6 0 42.666667 17.066667 42.666667 42.666667S750.933333 341.333333 725.333333 341.333333z" p-id="2277" data-spm-anchor-id="a313x.7781069.0.i11" class="selected" fill="#fc8800"></path><path d="M298.666667 384C273.066667 384 256 366.933333 256 341.333333L256 298.666667c0-25.6 17.066667-42.666667 42.666667-42.666667s42.666667 17.066667 42.666667 42.666667l0 42.666667C341.333333 366.933333 324.266667 384 298.666667 384z" p-id="2278" data-spm-anchor-id="a313x.7781069.0.i15" class="selected" fill="#fc8800"></path><path d="M725.333333 384c-25.6 0-42.666667-17.066667-42.666667-42.666667L682.666667 298.666667c0-25.6 17.066667-42.666667 42.666667-42.666667s42.666667 17.066667 42.666667 42.666667l0 42.666667C768 366.933333 750.933333 384 725.333333 384z" p-id="2279" data-spm-anchor-id="a313x.7781069.0.i12" class="selected" fill="#fc8800"></path><path d="M512 768c-25.6 0-42.666667-17.066667-42.666667-42.666667L469.333333 298.666667c0-25.6 17.066667-42.666667 42.666667-42.666667s42.666667 17.066667 42.666667 42.666667l0 426.666667C554.666667 750.933333 537.6 768 512 768z" p-id="2280" data-spm-anchor-id="a313x.7781069.0.i13" class="selected" fill="#fc8800"></path><path d="M554.666667 768l-85.333333 0c-25.6 0-42.666667-17.066667-42.666667-42.666667s17.066667-42.666667 42.666667-42.666667l85.333333 0c25.6 0 42.666667 17.066667 42.666667 42.666667S580.266667 768 554.666667 768z" p-id="2281" data-spm-anchor-id="a313x.7781069.0.i14" class="selected" fill="#fc8800"></path></svg>
