<svg t="1683766404642" class="icon" viewBox="0 0 1024 1024" version="1.1" xmlns="http://www.w3.org/2000/svg" p-id="1856" width="200" height="200"><path d="M984 610.6H714.72V328a40 40 0 0 0-80 0v282.6H404.14V328a40 40 0 0 0-80 0v282.6H40a40 40 0 0 0 0 80h284.14V984a40 40 0 0 0 80 0V690.6h230.58V984a40 40 0 0 0 80 0V690.6H984a40 40 0 0 0 0-80z" fill="#fc8800" p-id="1857"></path><path d="M924 0H100A100.12 100.12 0 0 0 0 100v824a100.12 100.12 0 0 0 100 100h824a100.12 100.12 0 0 0 100-100V100a100.12 100.12 0 0 0-100-100zM100 80h824a20.26 20.26 0 0 1 20 20v188H80V100a20.26 20.26 0 0 1 20-20z m824 864H100a20.26 20.26 0 0 1-20-20V368h864v556a20.26 20.26 0 0 1-20 20z" fill="#3865ab" p-id="1858"></path></svg>
