<svg class="animated" id="freepik_stories-computer-troubleshooting" xmlns="http://www.w3.org/2000/svg" viewBox="0 0 500 500" version="1.1" xmlns:xlink="http://www.w3.org/1999/xlink" xmlns:svgjs="http://svgjs.com/svgjs"><style>svg#freepik_stories-computer-troubleshooting:not(.animated) .animable {opacity: 0;}svg#freepik_stories-computer-troubleshooting.animated #freepik--background-complete--inject-22 {animation: 1.5s Infinite  linear spin;animation-delay: 0s;}         @keyframes spin {             from {                 transform: rotate(0);               }               to {                 transform: rotate(360deg);               }         }     .animator-hidden { display: none; }</style><g id="freepik--background-complete--inject-22" class="animable animator-active animator-hidden" style="transform-origin: 250px 228.23px;"><rect y="382.4" width="500" height="0.25" style="fill: rgb(235, 235, 235); transform-origin: 250px 382.525px;" id="eln4m7z38zwco" class="animable"></rect><rect x="416.78" y="398.49" width="33.12" height="0.25" style="fill: rgb(235, 235, 235); transform-origin: 433.34px 398.615px;" id="elz0jt85w4iz" class="animable"></rect><rect x="322.53" y="401.21" width="8.69" height="0.25" style="fill: rgb(235, 235, 235); transform-origin: 326.875px 401.335px;" id="elo8wvr0mo9hp" class="animable"></rect><rect x="396.59" y="389.21" width="19.19" height="0.25" style="fill: rgb(235, 235, 235); transform-origin: 406.185px 389.335px;" id="elqfghykzl1u" class="animable"></rect><rect x="52.46" y="390.89" width="43.19" height="0.25" style="fill: rgb(235, 235, 235); transform-origin: 74.055px 391.015px;" id="elk6wkutxsdx8" class="animable"></rect><rect x="104.56" y="390.89" width="6.33" height="0.25" style="fill: rgb(235, 235, 235); transform-origin: 107.725px 391.015px;" id="el1p5b0wdres9" class="animable"></rect><rect x="131.47" y="395.11" width="93.68" height="0.25" style="fill: rgb(235, 235, 235); transform-origin: 178.31px 395.235px;" id="el6kgfdbsxuy3" class="animable"></rect><path d="M237,337.8H43.91a5.71,5.71,0,0,1-5.7-5.71V60.66A5.71,5.71,0,0,1,43.91,55H237a5.71,5.71,0,0,1,5.71,5.71V332.09A5.71,5.71,0,0,1,237,337.8ZM43.91,55.2a5.46,5.46,0,0,0-5.45,5.46V332.09a5.46,5.46,0,0,0,5.45,5.46H237a5.47,5.47,0,0,0,5.46-5.46V60.66A5.47,5.47,0,0,0,237,55.2Z" style="fill: rgb(235, 235, 235); transform-origin: 140.46px 196.4px;" id="el2el60b111nq" class="animable"></path><path d="M453.31,337.8H260.21a5.72,5.72,0,0,1-5.71-5.71V60.66A5.72,5.72,0,0,1,260.21,55h193.1A5.71,5.71,0,0,1,459,60.66V332.09A5.71,5.71,0,0,1,453.31,337.8ZM260.21,55.2a5.47,5.47,0,0,0-5.46,5.46V332.09a5.47,5.47,0,0,0,5.46,5.46h193.1a5.47,5.47,0,0,0,5.46-5.46V60.66a5.47,5.47,0,0,0-5.46-5.46Z" style="fill: rgb(235, 235, 235); transform-origin: 356.75px 196.4px;" id="elcszkbfrfp1h" class="animable"></path><path d="M227.33,158.82v22.77l11.72,1.1a60.89,60.89,0,0,0,8.75,21l-7.53,9.1,16.09,16.1,9.1-7.54a60.7,60.7,0,0,0,21,8.75l1.1,11.72h22.77l1.11-11.72a61,61,0,0,0,21-8.75l9.09,7.54,16.1-16.1-7.53-9.1a60.68,60.68,0,0,0,8.74-21l11.73-1.1V158.82l-11.73-1.11a60.63,60.63,0,0,0-8.74-21l7.53-9.1-16.1-16.1L332.5,119a60.76,60.76,0,0,0-21-8.74l-1.11-11.73H287.59l-1.1,11.73a60.68,60.68,0,0,0-21,8.74l-9.1-7.53-16.09,16.1,7.53,9.09a61,61,0,0,0-8.75,21ZM299,139.38a30.82,30.82,0,1,1-30.82,30.82A30.82,30.82,0,0,1,299,139.38Z" style="fill: rgb(224, 224, 224); transform-origin: 298.95px 170.175px;" id="elr9b94dorzzn" class="animable"></path><path d="M188.86,260.7l6.54,5.41L207,254.54,201.56,248a43.82,43.82,0,0,0,6.28-15.11l8.42-.79V215.75l-8.42-.8a43.69,43.69,0,0,0-6.28-15.1l5.41-6.54L195.4,181.74l-6.54,5.41a43.66,43.66,0,0,0-15.11-6.28l-.79-8.42H156.6l-.79,8.42a43.82,43.82,0,0,0-15.11,6.28l-6.54-5.41L122.6,193.31l5.41,6.54a43.5,43.5,0,0,0-6.28,15.1l-8.43.8v16.36l8.43.79A43.63,43.63,0,0,0,128,248l-5.41,6.53,11.56,11.57,6.54-5.41A43.63,43.63,0,0,0,155.81,267l.79,8.43H173l.79-8.43A43.47,43.47,0,0,0,188.86,260.7Zm-46.22-36.77a22.15,22.15,0,1,1,22.14,22.14A22.15,22.15,0,0,1,142.64,223.93Z" style="fill: rgb(224, 224, 224); transform-origin: 164.78px 223.94px;" id="ele4ttrn3fx5" class="animable"></path><path d="M261.57,371.51a52.44,52.44,0,0,0,18-7.48l7.78,6.44,13.77-13.77-6.44-7.78a52.07,52.07,0,0,0,7.47-18l10-.95V310.51l-10-.95a52.07,52.07,0,0,0-7.47-18l6.44-7.78L287.34,270l-7.78,6.44a52.44,52.44,0,0,0-18-7.48l-.95-10H241.15l-1,10a52.28,52.28,0,0,0-18,7.48L214.43,270l-13.77,13.77,6.44,7.78a52.09,52.09,0,0,0-7.48,18l-10,.95V330l10,.95a52.09,52.09,0,0,0,7.48,18l-6.44,7.78,13.77,13.77,7.78-6.44a52.28,52.28,0,0,0,18,7.48l1,10h19.47Zm-37-51.27a26.37,26.37,0,1,1,26.36,26.37A26.36,26.36,0,0,1,224.52,320.24Z" style="fill: rgb(224, 224, 224); transform-origin: 250.885px 320.25px;" id="elbw25w9xvzcg" class="animable"></path><path d="M401.55,211.23h21.51a2.7,2.7,0,0,0,2.34-4l-10.76-18.63a2.69,2.69,0,0,0-4.67,0l-10.75,18.63A2.7,2.7,0,0,0,401.55,211.23Zm12.2-17.6-.47,9.28h-2l-.49-9.28Zm-3,12.47a1.51,1.51,0,0,1,1.57-1.52,1.53,1.53,0,0,1,1.6,1.52,1.54,1.54,0,0,1-1.6,1.55A1.53,1.53,0,0,1,410.72,206.1Z" style="fill: rgb(240, 240, 240); transform-origin: 412.31px 199.238px;" id="ela7oocmba0wb" class="animable"></path><path d="M87,127.23h21.5a2.7,2.7,0,0,0,2.34-4L100,104.55a2.7,2.7,0,0,0-4.68,0L84.61,123.18A2.7,2.7,0,0,0,87,127.23Zm12.2-17.59-.48,9.27h-2l-.5-9.27Zm-3,12.47a1.51,1.51,0,0,1,1.56-1.53,1.54,1.54,0,1,1,0,3.07A1.52,1.52,0,0,1,96.12,122.11Z" style="fill: rgb(240, 240, 240); transform-origin: 97.7108px 115.214px;" id="elkofvhd2x3u" class="animable"></path><path d="M144.65,356.39h21.5a2.7,2.7,0,0,0,2.34-4.05l-10.75-18.63a2.7,2.7,0,0,0-4.68,0l-10.75,18.63A2.7,2.7,0,0,0,144.65,356.39Zm12.2-17.6-.48,9.28h-2l-.5-9.28Zm-3,12.47a1.51,1.51,0,0,1,1.57-1.52,1.54,1.54,0,0,1,1.61,1.52,1.55,1.55,0,0,1-1.61,1.55A1.53,1.53,0,0,1,153.81,351.26Z" style="fill: rgb(240, 240, 240); transform-origin: 155.4px 344.374px;" id="el4g8os63fpe6" class="animable"></path><path d="M346,329.44h21.51a2.7,2.7,0,0,0,2.33-4.05L359.1,306.76a2.7,2.7,0,0,0-4.68,0l-10.75,18.63A2.7,2.7,0,0,0,346,329.44Zm12.2-17.6-.48,9.28h-2l-.5-9.28Zm-3,12.47a1.5,1.5,0,0,1,1.56-1.52,1.54,1.54,0,0,1,1.61,1.52,1.55,1.55,0,0,1-1.61,1.55A1.52,1.52,0,0,1,355.18,324.31Z" style="fill: rgb(240, 240, 240); transform-origin: 356.755px 317.424px;" id="elpqwtxuk3v5" class="animable"></path><path d="M361.47,93.79h11.91a1.5,1.5,0,0,0,1.3-2.24l-6-10.31a1.49,1.49,0,0,0-2.59,0l-5.95,10.31A1.49,1.49,0,0,0,361.47,93.79Zm6.76-9.74L368,89.19h-1.09l-.28-5.14ZM366.55,91a.84.84,0,0,1,.87-.85.85.85,0,1,1,0,1.7A.84.84,0,0,1,366.55,91Z" style="fill: rgb(240, 240, 240); transform-origin: 367.406px 87.1388px;" id="el9zjf4wniijn" class="animable"></path><path d="M64.44,251.5H76.35a1.49,1.49,0,0,0,1.3-2.24l-6-10.31a1.48,1.48,0,0,0-2.58,0l-6,10.31A1.49,1.49,0,0,0,64.44,251.5Zm6.76-9.74-.26,5.14H69.85l-.27-5.14Zm-1.68,6.91a.84.84,0,0,1,.87-.85.85.85,0,1,1,0,1.7A.84.84,0,0,1,69.52,248.67Z" style="fill: rgb(240, 240, 240); transform-origin: 70.3593px 244.849px;" id="el7ok5lzfj0qx" class="animable"></path><path d="M292.48,175.29h11.91a1.5,1.5,0,0,0,1.29-2.25l-5.95-10.31a1.49,1.49,0,0,0-2.59,0l-6,10.31A1.5,1.5,0,0,0,292.48,175.29Zm6.75-9.75-.26,5.14h-1.09l-.27-5.14Zm-1.67,6.91a.84.84,0,0,1,.86-.85.86.86,0,1,1-.86.85Z" style="fill: rgb(240, 240, 240); transform-origin: 298.41px 168.634px;" id="elfhxodhq5ezb" class="animable"></path><rect x="164.11" y="88.33" width="30.94" height="20.45" style="fill: rgb(224, 224, 224); transform-origin: 179.58px 98.555px;" id="ellyg5dhseq0f" class="animable"></rect><rect x="164.11" y="88.33" width="31" height="3.36" style="fill: rgb(240, 240, 240); transform-origin: 179.61px 90.01px;" id="elo4ul3bcq9d" class="animable"></rect><rect x="96.5" y="164.16" width="30.94" height="20.45" style="fill: rgb(224, 224, 224); transform-origin: 111.97px 174.385px;" id="elrimj7swb767" class="animable"></rect><rect x="96.5" y="164.16" width="31" height="3.36" style="fill: rgb(240, 240, 240); transform-origin: 112px 165.84px;" id="ely9bdw7z261" class="animable"></rect><rect x="92.22" y="309.72" width="30.94" height="20.45" style="fill: rgb(224, 224, 224); transform-origin: 107.69px 319.945px;" id="elrhcjcjred0f" class="animable"></rect><rect x="92.22" y="309.72" width="31" height="3.36" style="fill: rgb(240, 240, 240); transform-origin: 107.72px 311.4px;" id="elzx83i7ed3ld" class="animable"></rect><rect x="330.44" y="257.02" width="30.94" height="20.45" style="fill: rgb(224, 224, 224); transform-origin: 345.91px 267.245px;" id="elk7em7kpsnar" class="animable"></rect><rect x="330.44" y="257.02" width="31" height="3.36" style="fill: rgb(240, 240, 240); transform-origin: 345.94px 258.7px;" id="elu837mchbmi" class="animable"></rect><rect x="398.25" y="283.55" width="30.94" height="20.45" style="fill: rgb(224, 224, 224); transform-origin: 413.72px 293.775px;" id="elm08ke2hj2yn" class="animable"></rect><rect x="398.25" y="283.55" width="31" height="3.36" style="fill: rgb(240, 240, 240); transform-origin: 413.75px 285.23px;" id="el3fbsjasxlhf" class="animable"></rect><rect x="386.87" y="130.76" width="30.94" height="20.45" style="fill: rgb(224, 224, 224); transform-origin: 402.34px 140.985px;" id="eljzrgazlz0h" class="animable"></rect><rect x="386.87" y="130.76" width="31" height="3.36" style="fill: rgb(240, 240, 240); transform-origin: 402.37px 132.44px;" id="el8ysg5wv7a5s" class="animable"></rect></g><g id="freepik--Shadow--inject-22" class="animable" style="transform-origin: 250px 416.24px;"><ellipse id="freepik--path--inject-22" cx="250" cy="416.24" rx="193.89" ry="11.32" style="fill: rgb(245, 245, 245); transform-origin: 250px 416.24px;" class="animable"></ellipse></g><g id="freepik--speech-bubble--inject-22" class="animable" style="transform-origin: 199.145px 144.715px;"><path d="M213.48,119.42H184.76a8.85,8.85,0,0,0-8.85,8.85v25a8.84,8.84,0,0,0,8.85,8.84h5.38l-2,7.9,8-7.9h17.4a8.84,8.84,0,0,0,8.84-8.84v-25A8.85,8.85,0,0,0,213.48,119.42Z" style="fill: rgb(232, 91, 45); transform-origin: 199.145px 144.715px;" id="el9vqgzck9qfl" class="animable"></path><g id="elbmovn9q8iaf"><path d="M213.48,119.42H184.76a8.85,8.85,0,0,0-8.85,8.85v25a8.84,8.84,0,0,0,8.85,8.84h5.38l-2,7.9,8-7.9h17.4a8.84,8.84,0,0,0,8.84-8.84v-25A8.85,8.85,0,0,0,213.48,119.42Z" style="fill: rgb(255, 255, 255); opacity: 0.7; transform-origin: 199.145px 144.715px;" class="animable"></path></g><path d="M199.12,155.79a14.8,14.8,0,1,1,14.8-14.8A14.82,14.82,0,0,1,199.12,155.79Zm0-27.6a12.8,12.8,0,1,0,12.8,12.8A12.81,12.81,0,0,0,199.12,128.19Z" style="fill: rgb(232, 91, 45); transform-origin: 199.12px 140.99px;" id="el7j1u11m5a9i" class="animable"></path><path d="M196.85,146.71h0a1,1,0,0,1-.73-.32l-4.36-4.72a1,1,0,0,1,.06-1.42,1,1,0,0,1,1.41.06l3.63,3.94L205,135.6a1,1,0,0,1,1.41,0,1,1,0,0,1,0,1.42l-8.89,9.42A1,1,0,0,1,196.85,146.71Z" style="fill: rgb(232, 91, 45); transform-origin: 199.099px 141.01px;" id="el15mpc7xzqwpi" class="animable"></path></g><g id="freepik--Character--inject-22" class="animable" style="transform-origin: 158.754px 289.465px;"><polygon points="163.3 411.28 170.26 411.16 171.99 395.08 165.03 395.2 163.3 411.28" style="fill: rgb(228, 137, 123); transform-origin: 167.645px 403.18px;" id="eld8p4vpxv168" class="animable"></polygon><g id="elwrx9vlyyzp"><polygon points="171.99 395.09 171.1 403.37 164.14 403.49 165.03 395.2 171.99 395.09" style="opacity: 0.2; transform-origin: 168.065px 399.29px;" class="animable"></polygon></g><path d="M179.62,337.05c0,22-6.19,63.89-6.19,63.89l-11.64,1.81s-1.13-39.06-1.57-60.68c-.07-3.18-8.94-18.56-18.08-33.58-4.71-7.74-9.49-15.4-13.19-21.25-3.95-6.26-6.65-10.46-6.65-10.46l27.63-10.34S179.6,315.87,179.62,337.05Z" style="fill: rgb(232, 91, 45); transform-origin: 150.96px 334.595px;" id="elne945q3bua9" class="animable"></path><polygon points="175.06 401.62 161.04 402.51 160.8 398 176.19 396.79 175.06 401.62" style="fill: rgb(38, 50, 56); transform-origin: 168.495px 399.65px;" id="elrokg7yaegop" class="animable"></polygon><path d="M170.6,410.19a.18.18,0,0,1,.1-.17c.32-.15,3.17-1.48,4-1a.5.5,0,0,1,.25.45.93.93,0,0,1-.34.79c-.79.64-2.77.31-3.88.05h0A.16.16,0,0,1,170.6,410.19Zm.69-.08c1.52.31,2.67.28,3.11-.09a.57.57,0,0,0,.22-.52.18.18,0,0,0-.09-.17l-.06,0C174,409.1,172.41,409.63,171.29,410.11Z" style="fill: rgb(232, 91, 45); transform-origin: 172.776px 409.773px;" id="elvg4xtp1idas" class="animable"></path><path d="M170.66,410.3a.17.17,0,0,1-.06-.15,4.72,4.72,0,0,1,1.19-2.63,1.22,1.22,0,0,1,.93-.26c.45.07.57.3.59.48.1.79-1.63,2.23-2.48,2.58a.13.13,0,0,1-.12,0Zm2-2.71a.89.89,0,0,0-.68.19,3.83,3.83,0,0,0-1,2.1c.87-.48,2-1.62,2-2.1a.22.22,0,0,0-.15-.15A.61.61,0,0,0,172.67,407.59Z" style="fill: rgb(232, 91, 45); transform-origin: 171.957px 408.792px;" id="elo3it7x2f0ae" class="animable"></path><path d="M170.06,409.34l-7.6-.24a.62.62,0,0,0-.61.45l-1.63,6.11a1,1,0,0,0,.95,1.27c2.75,0,6.71,0,10.16.12,4,.13,6.59-.06,11.31.1,2.85.09,3.77-2.76,2.58-3.06-5.39-1.36-8.92-1.11-13.51-4.15A3.19,3.19,0,0,0,170.06,409.34Z" style="fill: rgb(38, 50, 56); transform-origin: 172.955px 413.126px;" id="elxyxn3olbqrq" class="animable"></path><g id="elk9wnvumw9c"><path d="M142.14,308.49c-4.71-7.74-9.49-15.4-13.19-21.25a27.79,27.79,0,0,1,5.09-5S142.11,296.28,142.14,308.49Z" style="opacity: 0.2; transform-origin: 135.545px 295.365px;" class="animable"></path></g><polygon points="84.8 410.44 91.52 412.26 97.66 397.3 90.94 395.48 84.8 410.44" style="fill: rgb(228, 137, 123); transform-origin: 91.23px 403.87px;" id="el34ccpia93qc" class="animable"></polygon><g id="eluec8au6yxj"><polygon points="97.65 397.31 94.49 405.02 87.77 403.19 90.93 395.48 97.65 397.31" style="opacity: 0.2; transform-origin: 92.71px 400.25px;" class="animable"></polygon></g><path d="M150.63,260.47l-.56,9.67-16.76,13.37s-1.15,45-5.92,54.86-27.71,61.5-27.71,61.5L87.14,396s19.93-60.7,21.94-64.29-8.55-55.93,5.59-80.68Z" style="fill: rgb(232, 91, 45); transform-origin: 118.885px 325.45px;" id="el7aqj8y9yvhn" class="animable"></path><path d="M171.3,217.32c.71,4.51,1.3,9,1.82,13.53s1,9.06,1.28,13.69l.18,3a8.54,8.54,0,0,0,.53,2.15,16,16,0,0,0,2.79,4.53,34.22,34.22,0,0,0,4.33,4.25c.81.66,1.64,1.34,2.5,2s1.78,1.25,2.57,1.79l-2,4.79a32.61,32.61,0,0,1-3.5-1.26c-1.11-.48-2.23-1-3.31-1.56a33.73,33.73,0,0,1-6.26-4.25,22.43,22.43,0,0,1-5.22-6.38,16.48,16.48,0,0,1-1.61-4.28c-.1-.37-.15-.77-.22-1.16l-.14-1-.23-1.63-2-13.32c-.67-4.46-1.3-8.94-1.86-13.41Z" style="fill: rgb(220, 137, 124); transform-origin: 174.125px 242.185px;" id="elr50257nz24" class="animable"></path><path d="M156.75,205c-3.89,5.4,2.79,26,2.79,26L175,227.27a83.82,83.82,0,0,0-3.5-17.71C168.62,201.25,161,199.06,156.75,205Z" style="fill: rgb(232, 91, 45); transform-origin: 165.267px 216.32px;" id="el39fjty4t7m3" class="animable"></path><g id="elgtq84w30z5l"><path d="M156.75,205c-3.89,5.4,2.79,26,2.79,26L175,227.27a83.82,83.82,0,0,0-3.5-17.71C168.62,201.25,161,199.06,156.75,205Z" style="fill: rgb(255, 255, 255); opacity: 0.7; transform-origin: 165.267px 216.32px;" class="animable"></path></g><g id="el58y2fxrv0kf"><path d="M162,216c2.68,2.56,4.23,9.16,3.25,13.61L159.54,231A104.94,104.94,0,0,1,156,215.78C157.45,214.58,158.92,213.09,162,216Z" style="opacity: 0.2; transform-origin: 160.773px 222.657px;" class="animable"></path></g><path d="M128.4,192.3a155.39,155.39,0,0,1-3.33,23c-1.15,5.29-2.47,10.26-3.77,14.74-3,10.49-6,18.27-6.63,21l36,9.41c17.78-35.69,15.35-58,15.35-58a73.38,73.38,0,0,0-8-3.87c-.58-.24-1.18-.46-1.79-.68a136,136,0,0,0-15.29-4c-1-.21-2-.39-3-.56C132.94,192.55,128.4,192.3,128.4,192.3Z" style="fill: rgb(232, 91, 45); transform-origin: 140.401px 226.375px;" id="eldct580a449" class="animable"></path><g id="el4dyargc9ior"><path d="M128.4,192.3a155.39,155.39,0,0,1-3.33,23c-1.15,5.29-2.47,10.26-3.77,14.74-3,10.49-6,18.27-6.63,21l36,9.41c17.78-35.69,15.35-58,15.35-58a73.38,73.38,0,0,0-8-3.87c-.58-.24-1.18-.46-1.79-.68a136,136,0,0,0-15.29-4c-1-.21-2-.39-3-.56C132.94,192.55,128.4,192.3,128.4,192.3Z" style="fill: rgb(255, 255, 255); opacity: 0.7; transform-origin: 140.401px 226.375px;" class="animable"></path></g><path d="M153.79,200.28c-1.85-3.3.2-6.14,2.67-8.51l-3.85-12.08c-1.86,4.82-6,13.21-10.8,14.21a15.58,15.58,0,0,0,3,6.38Z" style="fill: rgb(228, 137, 123); transform-origin: 149.135px 189.985px;" id="eljamy1e6fg4c" class="animable"></path><g id="el1peosc1sjkc"><path d="M154.18,184.62l2.28,7.14a16.31,16.31,0,0,0-1.9,2.12c-1.68-1.4-2.95-5-1.94-7A7.39,7.39,0,0,1,154.18,184.62Z" style="opacity: 0.2; transform-origin: 154.36px 189.25px;" class="animable"></path></g><path d="M177.5,180.29c-.19.92-8.38-1-9.65-2.82s2.87-2.76,5.45-1.42A11.86,11.86,0,0,1,177.5,180.29Z" style="fill: rgb(232, 91, 45); transform-origin: 172.557px 177.973px;" id="eljw77p3cizeq" class="animable"></path><g id="elbynp2kanref"><path d="M177.5,180.29c-.19.92-8.38-1-9.65-2.82s2.87-2.76,5.45-1.42A11.86,11.86,0,0,1,177.5,180.29Z" style="opacity: 0.3; transform-origin: 172.557px 177.973px;" class="animable"></path></g><path d="M173.68,175.65c0,2.8-2.17,7.88-5.17,5S173.73,170.84,173.68,175.65Z" style="fill: rgb(38, 50, 56); transform-origin: 170.766px 177.751px;" id="el2r99na7657b" class="animable"></path><path d="M169.22,187.47a20.34,20.34,0,0,1-1.65,2.41c-4.12,5.19-12.36,4.93-15.43-.9a8.9,8.9,0,0,1-.55-1.21c-1.67-4.63.14-8.25,2.66-14.65A9.48,9.48,0,0,1,170,170C174.28,174.5,172.35,182.22,169.22,187.47Z" style="fill: rgb(228, 137, 123); transform-origin: 161.711px 180.3px;" id="ela4oshj9qm6r" class="animable"></path><path d="M158.9,162a9.44,9.44,0,0,0-3.79,2.26c-3.72,3.42-6.43,8.54-1.72,13.71,3.41-1.28,5.09-6,5.51-7.35Z" style="fill: rgb(38, 50, 56); transform-origin: 154.892px 169.985px;" id="elbiro351cxjq" class="animable"></path><path d="M149.42,177.18a6.45,6.45,0,0,0,1.33,4.8c1.43,1.79,3.5.84,4.23-1.2.67-1.84.73-5-1.25-6A3,3,0,0,0,149.42,177.18Z" style="fill: rgb(228, 137, 123); transform-origin: 152.385px 178.699px;" id="elo4ha7yykdkr" class="animable"></path><path d="M162.94,179.18c-.24.5-.16,1,.18,1.19s.79-.14,1-.65.16-1-.18-1.19S163.18,178.67,162.94,179.18Z" style="fill: rgb(38, 50, 56); transform-origin: 163.523px 179.45px;" id="el1rv255at72c" class="animable"></path><path d="M168.71,181.8c-.24.5-.16,1,.17,1.19s.8-.14,1-.64.15-1-.18-1.2S168.94,181.29,168.71,181.8Z" style="fill: rgb(38, 50, 56); transform-origin: 169.285px 182.068px;" id="el4dzsw01xht4" class="animable"></path><path d="M166.76,181.22a19.25,19.25,0,0,0,.52,5.31,3.33,3.33,0,0,1-2.61-.7Z" style="fill: rgb(222, 87, 83); transform-origin: 165.975px 183.895px;" id="elps629bp2gd" class="animable"></path><path d="M161,186.53a6.34,6.34,0,0,0,.64.35.18.18,0,0,0,.22-.08.16.16,0,0,0-.08-.22,4.37,4.37,0,0,1-2.56-3.07.17.17,0,0,0-.33.05A4.56,4.56,0,0,0,161,186.53Z" style="fill: rgb(38, 50, 56); transform-origin: 160.384px 185.144px;" id="elblrv2g93xoi" class="animable"></path><path d="M162,176.52a.34.34,0,0,0,.34,0,2.65,2.65,0,0,1,2.38-.13.33.33,0,0,0,.45-.13.32.32,0,0,0-.13-.44,3.3,3.3,0,0,0-3,.12.32.32,0,0,0-.14.44A.36.36,0,0,0,162,176.52Z" style="fill: rgb(38, 50, 56); transform-origin: 163.536px 176.041px;" id="el4zv4o24ily" class="animable"></path><path d="M172.11,181a.26.26,0,0,0,.19.05.32.32,0,0,0,.32-.33,3.26,3.26,0,0,0-1.37-2.66.35.35,0,0,0-.46.11.33.33,0,0,0,.11.45,2.55,2.55,0,0,1,1.06,2.11A.3.3,0,0,0,172.11,181Z" style="fill: rgb(38, 50, 56); transform-origin: 171.682px 179.534px;" id="el0r3pwpjbfhfp" class="animable"></path><path d="M173.42,177.47c-4.6-3.57-10.47-5.19-15.06-5.93a43.72,43.72,0,0,0-7.47-.61c.2-2.58,3.5-8.48,5.57-8.91a34.55,34.55,0,0,1,10.44.35c2.42.9,7.23,4.39,7.59,5.86C175.24,171.3,173.42,177.47,173.42,177.47Z" style="fill: rgb(232, 91, 45); transform-origin: 162.781px 169.624px;" id="elbg3p9xn0y6l" class="animable"></path><path d="M158.35,171.53s6.1-1.36,11.44.71,7.71,8,7.71,8-.47-1.23-4.88-2.82C167.73,175.71,163.59,175.68,158.35,171.53Z" style="fill: rgb(232, 91, 45); transform-origin: 167.925px 175.666px;" id="elaajqnw7icgu" class="animable"></path><g id="el6ozpwpquf"><path d="M166.9,162.37s-5.45,2.35-5.83,2.73-2.71,6.44-2.71,6.44a43.72,43.72,0,0,0-7.47-.61c.2-2.58,3.5-8.48,5.57-8.91A34.55,34.55,0,0,1,166.9,162.37Z" style="opacity: 0.1; transform-origin: 158.895px 166.659px;" class="animable"></path></g><g id="elafkvtwxt4bc"><path d="M158.35,171.53s6.1-1.36,11.44.71,7.71,8,7.71,8-.47-1.23-4.88-2.82C167.73,175.71,163.59,175.68,158.35,171.53Z" style="opacity: 0.1; transform-origin: 167.925px 175.666px;" class="animable"></path></g><g id="el2ugwo6boz5n"><path d="M169.22,187.47a20.34,20.34,0,0,1-1.65,2.41c-4.12,5.19-12.36,4.93-15.43-.9a21.74,21.74,0,0,1,3.26-12.41l1.06-1.14s-1.32,5.09-.93,6.09,3.22-.28,4.53.55a5,5,0,0,1,1.82,2.55l-.81.51s-1.59-2.54-2.17-2.61-3.35,2.46-3.1,3.33-.17,1.31.66,1.7,2.85-.94,2.85-.94l1.1,1s-1.76,1.88-1.49,2.26a3.67,3.67,0,0,0,3.28.56c1.26-.51,1.21-3.26,1.45-3.54s-1.94-1.23-1.94-1.23l.67-1s2.75,1.75,2.85,2.27-.44,2.1,0,2.1A10.41,10.41,0,0,0,169.22,187.47Z" style="opacity: 0.3; transform-origin: 160.67px 184.502px;" class="animable"></path></g><path d="M171.65,171.18l-.15-.59.43-.42,1,.26a1.13,1.13,0,0,0-.8-.84,1.09,1.09,0,0,0-1.07.28.35.35,0,0,0-.14-.06l-2.64-.75-.14,0a1.12,1.12,0,0,0-1.9-.47l1,.27.15.58-.43.42-1-.26a1.14,1.14,0,0,0,.8.84,1.11,1.11,0,0,0,1.07-.27l.14,0,2.64.75a.34.34,0,0,0,.14,0,1.12,1.12,0,0,0,1.9.47Z" style="fill: rgb(255, 255, 255); transform-origin: 169.445px 169.99px;" id="eltlsvtn1cxm" class="animable"></path><path d="M186.06,261.64l6.74,2.15-5.37,5.72s-5.9-2.28-4.6-5.27Z" style="fill: rgb(228, 137, 123); transform-origin: 187.721px 265.575px;" id="elm83lsqqeaf" class="animable"></path><polygon points="196.21 271.23 194.19 274.88 187.43 269.51 192.8 263.79 196.21 271.23" style="fill: rgb(228, 137, 123); transform-origin: 191.82px 269.335px;" id="elztf6q21cz6" class="animable"></polygon><path d="M128,206.7c-3.09,3.54-6.24,7.2-9.23,10.84-1.52,1.81-3,3.66-4.35,5.48a47,47,0,0,0-3.58,5.35,9.27,9.27,0,0,0-.48,1c0,.1-.07.18-.06.09s0,0,0-.09l0-.45a4.25,4.25,0,0,0-.38-1.37,5.58,5.58,0,0,0-.32-.56c-.12-.17-.27-.34-.35-.44s-.22-.21-.33-.31l-.26-.2a2.53,2.53,0,0,0-.39-.22l-.22-.1-.11,0c-.08,0,0,0,.15.06a7.12,7.12,0,0,0,1.22.18c1,.08,2.11.1,3.24.08s2.3,0,3.48-.09c4.7-.22,9.54-.58,14.35-.87l1,5.11A113.35,113.35,0,0,1,116.94,234a52.56,52.56,0,0,1-7.82,1,18.51,18.51,0,0,1-2.41-.07,9.4,9.4,0,0,1-1.63-.32,4.25,4.25,0,0,1-.54-.18c-.2-.08-.38-.14-.64-.27a5.18,5.18,0,0,1-.78-.47,3.55,3.55,0,0,1-.43-.33c-.18-.15-.34-.31-.5-.47a5.16,5.16,0,0,1-.49-.62,4.47,4.47,0,0,1-.43-.75,5.2,5.2,0,0,1-.49-1.81,3.55,3.55,0,0,1,0-.46v-.45a4.26,4.26,0,0,1,0-.54,10.12,10.12,0,0,1,.33-1.69,18.62,18.62,0,0,1,.88-2.4,48,48,0,0,1,4.07-7C107.5,215,109,213,110.52,211c3.08-4,6.24-7.69,9.65-11.38Z" style="fill: rgb(220, 137, 124); transform-origin: 116.076px 217.316px;" id="elm0ocvhvkbi" class="animable"></path><path d="M126.28,192.38c-6.58,1-16.9,18-16.9,18l14.28,9.28A96.41,96.41,0,0,0,133.33,205C137.64,196.72,134.24,191.12,126.28,192.38Z" style="fill: rgb(232, 91, 45); transform-origin: 122.296px 205.932px;" id="elfyiqeoltaab" class="animable"></path><g id="elmawq4i7etn"><path d="M126.28,192.38c-6.58,1-16.9,18-16.9,18l14.28,9.28A96.41,96.41,0,0,0,133.33,205C137.64,196.72,134.24,191.12,126.28,192.38Z" style="fill: rgb(255, 255, 255); opacity: 0.7; transform-origin: 122.296px 205.932px;" class="animable"></path></g><path d="M140.86,193.93l3.52-2.56,6.56,8.78,2.53-4.39,2.68,2.17a8,8,0,0,1,0,8l-5.26-4.31-5.66,3.63S139.21,198.24,140.86,193.93Z" style="fill: rgb(232, 91, 45); transform-origin: 148.898px 198.65px;" id="el6n81twax9j" class="animable"></path><path d="M132.9,180.92a18.14,18.14,0,1,1-30.82,3.83l9.91,12.6,9.66-1.39,3.63-9.06-9.91-12.6A18.1,18.1,0,0,1,132.9,180.92Z" style="fill: rgb(232, 91, 45); transform-origin: 118.646px 192.139px;" id="ela0rh4p4n5z4" class="animable"></path><path d="M203,328.64a18.13,18.13,0,1,1,30.82-3.83l-9.91-12.6-9.66,1.39-3.63,9.07,9.91,12.59A18.1,18.1,0,0,1,203,328.64Z" style="fill: rgb(232, 91, 45); transform-origin: 217.256px 317.436px;" id="el4vg7iojku5t" class="animable"></path><g id="el555wwspfb2"><g style="opacity: 0.2; transform-origin: 167.946px 254.78px;" class="animable"><path d="M132.9,180.92a18.14,18.14,0,1,1-30.82,3.83l9.91,12.6,9.66-1.39,3.63-9.06-9.91-12.6A18.1,18.1,0,0,1,132.9,180.92Z" style="fill: rgb(255, 255, 255); transform-origin: 118.646px 192.139px;" id="elzvjtovh8xqf" class="animable"></path><path d="M203,328.64a18.13,18.13,0,1,1,30.82-3.83l-9.91-12.6-9.66,1.39-3.63,9.07,9.91,12.59A18.1,18.1,0,0,1,203,328.64Z" style="fill: rgb(255, 255, 255); transform-origin: 217.256px 317.436px;" id="elcbovv5tmzk" class="animable"></path></g></g><path d="M212.09,310.93h0a9.57,9.57,0,0,1-13.44-1.61l-76.49-97.24a9.57,9.57,0,0,1,1.6-13.44h0a9.57,9.57,0,0,1,13.44,1.6l76.5,97.25A9.57,9.57,0,0,1,212.09,310.93Z" style="fill: rgb(232, 91, 45); transform-origin: 167.928px 254.783px;" id="ellws1f5776qc" class="animable"></path><g id="el8zf1jeyl90x"><path d="M212.09,310.93h0a9.57,9.57,0,0,1-13.44-1.61l-76.49-97.24a9.57,9.57,0,0,1,1.6-13.44h0a9.57,9.57,0,0,1,13.44,1.6l76.5,97.25A9.57,9.57,0,0,1,212.09,310.93Z" style="fill: rgb(255, 255, 255); opacity: 0.2; transform-origin: 167.928px 254.783px;" class="animable"></path></g><g id="elp5myewnq8nf"><path d="M207.61,305.23h0a4.91,4.91,0,0,1-6.9-.82l-73.29-93.17a4.93,4.93,0,0,1,.82-6.91h0a4.94,4.94,0,0,1,6.91.83l73.29,93.17A4.92,4.92,0,0,1,207.61,305.23Z" style="opacity: 0.2; transform-origin: 167.928px 254.786px;" class="animable"></path></g><path d="M128.81,226.31l5.24-4.71,2.59,8.53s-5.34,3-7.24.32Z" style="fill: rgb(228, 137, 123); transform-origin: 132.725px 226.582px;" id="el5x9r9wb2lxx" class="animable"></path><polygon points="139.8 221.2 141.62 228.34 136.64 230.13 134.04 221.6 139.8 221.2" style="fill: rgb(228, 137, 123); transform-origin: 137.83px 225.665px;" id="el06b656xmi8wa" class="animable"></polygon><polygon points="98.66 403.45 85.42 398.76 86.97 394.51 101.6 399.45 98.66 403.45" style="fill: rgb(38, 50, 56); transform-origin: 93.51px 398.98px;" id="el1prxxi25meh" class="animable"></polygon><path d="M92.55,410.19a.18.18,0,0,1,.1-.17c.32-.15,3.17-1.48,4-1a.5.5,0,0,1,.25.45.93.93,0,0,1-.34.79c-.79.64-2.77.31-3.88.05h0A.16.16,0,0,1,92.55,410.19Zm.69-.08c1.52.31,2.67.28,3.11-.09a.57.57,0,0,0,.22-.52.18.18,0,0,0-.09-.17l-.06,0C95.9,409.1,94.36,409.63,93.24,410.11Z" style="fill: rgb(232, 91, 45); transform-origin: 94.7262px 409.773px;" id="elf7cickkpbc9" class="animable"></path><path d="M92.62,410.3a.18.18,0,0,1-.07-.15,4.72,4.72,0,0,1,1.19-2.63,1.22,1.22,0,0,1,.93-.26c.45.07.57.3.59.48.1.79-1.63,2.23-2.48,2.58a.13.13,0,0,1-.12,0Zm2-2.71a.89.89,0,0,0-.68.19,3.83,3.83,0,0,0-1,2.1c.87-.48,2-1.62,2-2.1a.22.22,0,0,0-.15-.15A.61.61,0,0,0,94.62,407.59Z" style="fill: rgb(232, 91, 45); transform-origin: 93.907px 408.792px;" id="el8unzoeiskt7" class="animable"></path><path d="M92,409.34l-7.6-.24a.62.62,0,0,0-.61.45l-1.63,6.11a1,1,0,0,0,1,1.27c2.75,0,6.71,0,10.16.12,4,.13,6.59-.06,11.31.1,2.85.09,3.77-2.76,2.58-3.06-5.39-1.36-8.92-1.11-13.51-4.15A3.19,3.19,0,0,0,92,409.34Z" style="fill: rgb(38, 50, 56); transform-origin: 94.9201px 413.126px;" id="el7zk3m56p0oh" class="animable"></path><polygon points="113.47 251.55 123.32 254.21 122.44 257.82 112 255.31 113.47 251.55" style="fill: rgb(38, 50, 56); transform-origin: 117.66px 254.685px;" id="elt2e9axdbfp" class="animable"></polygon><polygon points="124.44 254.5 147.69 260.77 147.15 263.79 123.44 258.07 124.44 254.5" style="fill: rgb(38, 50, 56); transform-origin: 135.565px 259.145px;" id="elqgimdnzpkmo" class="animable"></polygon><polygon points="150.96 261.65 150.63 264.62 147.93 263.98 148.54 261 150.96 261.65" style="fill: rgb(38, 50, 56); transform-origin: 149.445px 262.81px;" id="eljgzy9iasr1" class="animable"></polygon><path d="M133.94,257.3l-.62,2.92a.47.47,0,0,0,.35.56l5.48,1.29a.48.48,0,0,0,.57-.37l.57-2.75a.47.47,0,0,0-.34-.55l-5.42-1.46A.48.48,0,0,0,133.94,257.3Z" style="fill: rgb(255, 255, 255); transform-origin: 136.804px 259.503px;" id="els922nsn0o8" class="animable"></path><path d="M160.6,220.84l-.15-.58.43-.43,1,.27a1.13,1.13,0,0,0-1.88-.57l-.13-.06-2.64-.75-.14,0a1.13,1.13,0,0,0-.79-.78,1.11,1.11,0,0,0-1.11.32l.95.26.16.58-.43.43-1-.27a1.11,1.11,0,0,0,1.87.57.75.75,0,0,0,.13.06l2.65.75.14,0a1.12,1.12,0,0,0,1.9.47Z" style="fill: rgb(232, 91, 45); transform-origin: 158.375px 219.684px;" id="elov6ahp776w" class="animable"></path></g><g id="freepik--Device--inject-22" class="animable" style="transform-origin: 305.215px 318.55px;"><path d="M269.71,413.46v3a.68.68,0,0,0,.68.68h85.15a4.44,4.44,0,0,0,4.11-6.1l-27-66.82-43.6.3,1.49,8.67,9.62,56.12a3,3,0,0,1-2.92,3.47H270.39A.67.67,0,0,0,269.71,413.46Z" style="fill: rgb(232, 91, 45); transform-origin: 314.841px 380.68px;" id="elqw89fzxgcso" class="animable"></path><g id="ellvuvjsfjein"><path d="M269.71,413.46v3a.68.68,0,0,0,.68.68h85.15a4.44,4.44,0,0,0,4.11-6.1l-16.72-41.42-10.26-25.4-43.6.3,1.49,8.67,4.18,24.4,5.44,31.72a3,3,0,0,1-2.92,3.47H270.39A.67.67,0,0,0,269.71,413.46Z" style="fill: rgb(255, 255, 255); opacity: 0.6; transform-origin: 314.841px 380.68px;" class="animable"></path></g><g id="el6u93rqu433m"><path d="M297.26,412.79h55.39a2,2,0,0,0,1.8-2.69l-23.66-56.9H290.56l9.62,56.12A3,3,0,0,1,297.26,412.79Z" style="isolation: isolate; opacity: 0.2; transform-origin: 322.567px 382.995px;" class="animable"></path></g><g id="elxgze7mth73"><polygon points="289.07 344.53 290.56 353.2 294.74 377.6 342.93 369.63 332.67 344.23 289.07 344.53" style="isolation: isolate; opacity: 0.1; transform-origin: 316px 360.915px;" class="animable"></polygon></g><path d="M204.29,220H406.15a5.16,5.16,0,0,1,5.16,5.17V361.78a5.17,5.17,0,0,1-5.16,5.17H204.29a5.17,5.17,0,0,1-5.17-5.17V225.13A5.16,5.16,0,0,1,204.29,220Z" style="fill: rgb(232, 91, 45); transform-origin: 305.215px 293.475px;" id="elx2vwle0pv5p" class="animable"></path><g id="ely9kcj2tenwc"><path d="M204.29,220H406.15a5.16,5.16,0,0,1,5.16,5.17V361.78a5.17,5.17,0,0,1-5.16,5.17H204.29a5.17,5.17,0,0,1-5.17-5.17V225.13A5.16,5.16,0,0,1,204.29,220Z" style="fill: rgb(255, 255, 255); opacity: 0.7; transform-origin: 305.215px 293.475px;" class="animable"></path></g><g id="el09l0tug1q718"><path d="M401.87,366.94h4.28a5.16,5.16,0,0,0,5.16-5.16V225.13a5.16,5.16,0,0,0-5.16-5.17h-4.28a5.16,5.16,0,0,1,5.16,5.17V361.78A5.16,5.16,0,0,1,401.87,366.94Z" style="isolation: isolate; opacity: 0.2; transform-origin: 406.59px 293.45px;" class="animable"></path></g><rect x="203.77" y="225.02" width="198.6" height="131.77" style="fill: rgb(38, 50, 56); transform-origin: 303.07px 290.905px;" id="elxqjk5lpgi2" class="animable"></rect><rect x="203.77" y="225.02" width="198.6" height="10.11" style="fill: rgb(232, 91, 45); transform-origin: 303.07px 230.075px;" id="elzq39j00qtzn" class="animable"></rect><g id="elnwxqsx6uv4r"><path d="M397.73,230.44a2.47,2.47,0,1,1-2.47-2.47A2.48,2.48,0,0,1,397.73,230.44Z" style="opacity: 0.2; transform-origin: 395.26px 230.44px;" class="animable"></path></g><g id="elznpd5ravwb"><path d="M389.57,230.44A2.47,2.47,0,1,1,387.1,228,2.47,2.47,0,0,1,389.57,230.44Z" style="opacity: 0.2; transform-origin: 387.1px 230.47px;" class="animable"></path></g><g id="el4lhpzx8v26t"><path d="M381.42,230.44A2.47,2.47,0,1,1,379,228,2.48,2.48,0,0,1,381.42,230.44Z" style="opacity: 0.2; transform-origin: 378.95px 230.47px;" class="animable"></path></g><g id="elsxklwq38rwc"><rect x="203.77" y="235.18" width="198.6" height="34.21" style="fill: rgb(255, 255, 255); opacity: 0.4; transform-origin: 303.07px 252.285px;" class="animable"></rect></g><polygon points="208.32 236.7 203.77 244.85 203.77 236.7 208.32 236.7" style="fill: rgb(38, 50, 56); transform-origin: 206.045px 240.775px;" id="eli4jdbhsauw8" class="animable"></polygon><polygon points="232.85 236.7 215.42 267.98 203.77 267.98 203.77 264.15 219.07 236.7 232.85 236.7" style="fill: rgb(38, 50, 56); transform-origin: 218.31px 252.34px;" id="elw57h97wrnt" class="animable"></polygon><polygon points="239.88 268.11 226.1 268.11 243.61 236.69 257.38 236.69 239.88 268.11" style="fill: rgb(38, 50, 56); transform-origin: 241.74px 252.4px;" id="elcb98rf1t87" class="animable"></polygon><polygon points="264.41 268.11 250.63 268.11 268.14 236.69 281.92 236.69 264.41 268.11" style="fill: rgb(38, 50, 56); transform-origin: 266.275px 252.4px;" id="el0idkeefzutz" class="animable"></polygon><polygon points="288.94 268.11 275.16 268.11 292.67 236.69 306.45 236.69 288.94 268.11" style="fill: rgb(38, 50, 56); transform-origin: 290.805px 252.4px;" id="elj95odph58jg" class="animable"></polygon><polygon points="313.47 268.11 299.7 268.11 317.2 236.69 330.98 236.69 313.47 268.11" style="fill: rgb(38, 50, 56); transform-origin: 315.34px 252.4px;" id="el43kuu6mi2cn" class="animable"></polygon><polygon points="338.01 267.88 324.23 267.88 341.74 236.46 355.51 236.46 338.01 267.88" style="fill: rgb(38, 50, 56); transform-origin: 339.87px 252.17px;" id="elo10luqxd4gb" class="animable"></polygon><polygon points="362.54 267.88 348.76 267.88 366.27 236.46 380.05 236.46 362.54 267.88" style="fill: rgb(38, 50, 56); transform-origin: 364.405px 252.17px;" id="eln1o1lf8uji" class="animable"></polygon><polygon points="402.37 236.59 402.37 240.43 387.07 267.88 373.29 267.88 390.73 236.59 402.37 236.59" style="fill: rgb(38, 50, 56); transform-origin: 387.83px 252.235px;" id="el3yla8uzrf7z" class="animable"></polygon><polygon points="402.37 259.96 402.37 267.98 397.9 267.98 402.37 259.96" style="fill: rgb(38, 50, 56); transform-origin: 400.135px 263.97px;" id="elgnhx269dnt9" class="animable"></polygon><g id="elmaeypdnm3qq"><rect x="203.77" y="322.45" width="198.6" height="34.21" style="fill: rgb(255, 255, 255); opacity: 0.4; transform-origin: 303.07px 339.555px;" class="animable"></rect></g><polygon points="208.32 324.25 203.77 332.33 203.77 324.25 208.32 324.25" style="fill: rgb(38, 50, 56); transform-origin: 206.045px 328.29px;" id="eluoi2x6vsr1b" class="animable"></polygon><polygon points="232.85 324.25 215.42 355.27 203.77 355.27 203.77 351.47 219.07 324.25 232.85 324.25" style="fill: rgb(38, 50, 56); transform-origin: 218.31px 339.76px;" id="elgdg41t8xake" class="animable"></polygon><polygon points="239.88 355.4 226.1 355.4 243.61 324.25 257.38 324.25 239.88 355.4" style="fill: rgb(38, 50, 56); transform-origin: 241.74px 339.825px;" id="elrp5tnvc3r9" class="animable"></polygon><polygon points="264.41 355.4 250.63 355.4 268.14 324.25 281.92 324.25 264.41 355.4" style="fill: rgb(38, 50, 56); transform-origin: 266.275px 339.825px;" id="el4w5xtibyyu7" class="animable"></polygon><polygon points="288.94 355.4 275.16 355.4 292.67 324.25 306.45 324.25 288.94 355.4" style="fill: rgb(38, 50, 56); transform-origin: 290.805px 339.825px;" id="elaxgqh0qvcv" class="animable"></polygon><polygon points="313.47 355.4 299.7 355.4 317.2 324.25 330.98 324.25 313.47 355.4" style="fill: rgb(38, 50, 56); transform-origin: 315.34px 339.825px;" id="elxboib63fsfj" class="animable"></polygon><polygon points="338.01 355.17 324.23 355.17 341.74 324.02 355.51 324.02 338.01 355.17" style="fill: rgb(38, 50, 56); transform-origin: 339.87px 339.595px;" id="elhjmm8powozg" class="animable"></polygon><polygon points="362.54 355.17 348.76 355.17 366.27 324.02 380.05 324.02 362.54 355.17" style="fill: rgb(38, 50, 56); transform-origin: 364.405px 339.595px;" id="elgv8nlnsbi9" class="animable"></polygon><polygon points="402.37 324.14 402.37 327.94 387.07 355.16 373.29 355.16 390.73 324.14 402.37 324.14" style="fill: rgb(38, 50, 56); transform-origin: 387.83px 339.65px;" id="elb34mgzoxf8g" class="animable"></polygon><polygon points="402.37 347.31 402.37 355.27 397.9 355.27 402.37 347.31" style="fill: rgb(38, 50, 56); transform-origin: 400.135px 351.29px;" id="el35zoglrd7j9" class="animable"></polygon><path d="M270.17,301v2.85h-13.7V285.58h13.34v2.84h-9.94v4.75h8.82V296h-8.82v5Z" style="fill: rgb(255, 255, 255); transform-origin: 263.32px 294.715px;" id="elvxjeuz58nmi" class="animable"></path><path d="M285.91,303.85l-3.73-5.35c-.24,0-.47,0-.71,0h-4.12v5.33H274V285.58h7.52c4.8,0,7.78,2.45,7.78,6.5a5.85,5.85,0,0,1-3.89,5.77l4.2,6Zm-4.6-15.4h-4v7.28h4c3,0,4.52-1.36,4.52-3.65S284.29,288.45,281.31,288.45Z" style="fill: rgb(255, 255, 255); transform-origin: 281.805px 294.715px;" id="elzai7jo7kwe" class="animable"></path><path d="M305,303.85l-3.73-5.35c-.24,0-.47,0-.71,0h-4.12v5.33H293V285.58h7.51c4.81,0,7.78,2.45,7.78,6.5a5.85,5.85,0,0,1-3.89,5.77l4.2,6Zm-4.59-15.4h-4v7.28h4c3,0,4.51-1.36,4.51-3.65S303.36,288.45,300.39,288.45Z" style="fill: rgb(255, 255, 255); transform-origin: 300.8px 294.715px;" id="el98ghtz0wgrr" class="animable"></path><path d="M310.79,294.71c0-5.4,4.18-9.39,9.84-9.39s9.84,4,9.84,9.39-4.17,9.4-9.84,9.4S310.79,300.12,310.79,294.71Zm16.26,0a6.42,6.42,0,1,0-6.42,6.42A6.23,6.23,0,0,0,327.05,294.71Z" style="fill: rgb(255, 255, 255); transform-origin: 320.63px 294.715px;" id="el59ammdw3dbb" class="animable"></path><path d="M346,303.85l-3.73-5.35c-.24,0-.47,0-.7,0h-4.13v5.33h-3.39V285.58h7.52c4.8,0,7.77,2.45,7.77,6.5a5.85,5.85,0,0,1-3.89,5.77l4.21,6Zm-4.59-15.4h-4v7.28h4c3,0,4.51-1.36,4.51-3.65S344.4,288.45,341.43,288.45Z" style="fill: rgb(255, 255, 255); transform-origin: 341.855px 294.715px;" id="elftvj0pbbv6h" class="animable"></path><g id="eltb8tl3esof"><path d="M365.61,306.73h21.51a2.7,2.7,0,0,0,2.34-4.05L378.7,284.05a2.69,2.69,0,0,0-4.67,0l-10.76,18.63A2.7,2.7,0,0,0,365.61,306.73Zm12.2-17.6-.47,9.28h-2l-.49-9.28Zm-3,12.47a1.5,1.5,0,0,1,1.56-1.52A1.53,1.53,0,0,1,378,301.6a1.55,1.55,0,0,1-1.61,1.55A1.52,1.52,0,0,1,374.78,301.6Z" style="fill: rgb(255, 255, 255); opacity: 0.4; transform-origin: 376.365px 294.713px;" class="animable"></path></g><g id="el0ombikt6g88c"><path d="M219,306.73h21.51a2.7,2.7,0,0,0,2.33-4.05l-10.75-18.63a2.69,2.69,0,0,0-4.67,0l-10.76,18.63A2.7,2.7,0,0,0,219,306.73Zm12.2-17.6-.48,9.28h-2l-.49-9.28Zm-3,12.47a1.5,1.5,0,0,1,1.56-1.52,1.53,1.53,0,0,1,1.61,1.52,1.55,1.55,0,0,1-1.61,1.55A1.52,1.52,0,0,1,228.2,301.6Z" style="fill: rgb(255, 255, 255); opacity: 0.4; transform-origin: 229.75px 294.713px;" class="animable"></path></g><g id="ellga8q9nzsks"><path d="M224.47,225c27.46,27.51,98,88.73,177.9,84.21V225Z" style="fill: rgb(255, 255, 255); opacity: 0.1; transform-origin: 313.42px 267.224px;" class="animable"></path></g><g id="el28w4cvsm2ih"><path d="M203.77,275.58V356.8H323.34c-4.59-16.41-13.75-38.87-31.53-54.92C259.82,273,222.7,273.08,203.77,275.58Z" style="fill: rgb(255, 255, 255); opacity: 0.1; transform-origin: 263.555px 315.681px;" class="animable"></path></g></g><g id="freepik--tool-box--inject-22" class="animable" style="transform-origin: 383.73px 394.085px;"><path d="M374,411l3.56,1.56a5.43,5.43,0,0,1-5.7,1.19,5,5,0,0,1-2.73-6,4.34,4.34,0,0,1,1.3-2.11l-9.68-24.73c-3.48.14-4.95-3.12-4.87-5.36l3.54,1.57a1.64,1.64,0,1,0,1.3-3l-3.56-1.56a5.42,5.42,0,0,1,5.7-1.19,5.06,5.06,0,0,1,2.87,5.95,3.88,3.88,0,0,1-1.16,2.05l9.68,24.74c2.71.15,4.81,3.17,4.73,5.41L375.37,408a1.68,1.68,0,0,0-2.2.86A1.65,1.65,0,0,0,374,411Z" style="fill: rgb(232, 91, 45); transform-origin: 367.43px 392.559px;" id="eli80ty1civvn" class="animable"></path><g id="el4uqnyia1kuv"><path d="M374,411l3.56,1.56a5.43,5.43,0,0,1-5.7,1.19,5,5,0,0,1-2.73-6,4.34,4.34,0,0,1,1.3-2.11l-9.68-24.73c-3.48.14-4.95-3.12-4.87-5.36l3.54,1.57a1.64,1.64,0,1,0,1.3-3l-3.56-1.56a5.42,5.42,0,0,1,5.7-1.19,5.06,5.06,0,0,1,2.87,5.95,3.88,3.88,0,0,1-1.16,2.05l9.68,24.74c2.71.15,4.81,3.17,4.73,5.41L375.37,408a1.68,1.68,0,0,0-2.2.86A1.65,1.65,0,0,0,374,411Z" style="fill: rgb(255, 255, 255); opacity: 0.2; transform-origin: 367.43px 392.559px;" class="animable"></path></g><path d="M346.39,389.14l-3.77.94a5.4,5.4,0,0,1,3.79-4.42,5,5,0,0,1,5.83,3.09,4.32,4.32,0,0,1,.25,2.47l22.76,13.69c2.67-2.24,5.82-.55,7.13,1.27l-3.76.92a1.63,1.63,0,0,0-1.2,2,1.65,1.65,0,0,0,2,1.19l3.78-.94a5.4,5.4,0,0,1-3.79,4.42,5.06,5.06,0,0,1-5.91-3,4,4,0,0,1-.34-2.33l-22.75-13.7c-2.25,1.54-5.75.43-7.05-1.4l3.8-1a1.69,1.69,0,0,0,1.22-2A1.65,1.65,0,0,0,346.39,389.14Z" style="fill: rgb(232, 91, 45); transform-origin: 362.91px 399.723px;" id="elpug4vn06k8" class="animable"></path><g id="elz44vwp2jfe"><path d="M346.39,389.14l-3.77.94a5.4,5.4,0,0,1,3.79-4.42,5,5,0,0,1,5.83,3.09,4.32,4.32,0,0,1,.25,2.47l22.76,13.69c2.67-2.24,5.82-.55,7.13,1.27l-3.76.92a1.63,1.63,0,0,0-1.2,2,1.65,1.65,0,0,0,2,1.19l3.78-.94a5.4,5.4,0,0,1-3.79,4.42,5.06,5.06,0,0,1-5.91-3,4,4,0,0,1-.34-2.33l-22.75-13.7c-2.25,1.54-5.75.43-7.05-1.4l3.8-1a1.69,1.69,0,0,0,1.22-2A1.65,1.65,0,0,0,346.39,389.14Z" style="fill: rgb(255, 255, 255); opacity: 0.2; transform-origin: 362.91px 399.723px;" class="animable"></path></g><polygon points="422.89 377.76 422.89 377.76 422.95 377.6 387.78 377.6 379.53 399.39 414.55 399.39 414.53 399.45 417.42 399.45 424.84 380.02 422.89 377.76" style="fill: rgb(38, 50, 56); transform-origin: 402.185px 388.525px;" id="elea9zrnybuk5" class="animable"></polygon><g id="eldjz7vzxk1ge"><polygon points="422.89 377.76 422.89 377.76 422.95 377.6 387.78 377.6 379.53 399.39 414.55 399.39 414.53 399.45 417.42 399.45 424.84 380.02 422.89 377.76" style="fill: rgb(255, 255, 255); opacity: 0.2; transform-origin: 402.185px 388.525px;" class="animable"></polygon></g><g id="elne22zk3nbb9"><polygon points="422.95 377.6 414.7 399.39 379.53 399.39 387.78 377.6 422.95 377.6" style="isolation: isolate; opacity: 0.4; transform-origin: 401.24px 388.495px;" class="animable"></polygon></g><polygon points="361.9 392.85 370.04 403.31 372.96 402.87 364.37 392.85 361.9 392.85" style="fill: rgb(38, 50, 56); transform-origin: 367.43px 398.08px;" id="ely6bm8m190y" class="animable"></polygon><g id="el3v4dmabzw4q"><polygon points="361.9 392.85 370.04 403.31 372.96 402.87 364.37 392.85 361.9 392.85" style="fill: rgb(255, 255, 255); opacity: 0.1; transform-origin: 367.43px 398.08px;" class="animable"></polygon></g><polygon points="364.37 382.96 372.51 393.42 375.43 392.98 366.84 382.96 364.37 382.96" style="fill: rgb(38, 50, 56); transform-origin: 369.9px 388.19px;" id="el97pythrd67l" class="animable"></polygon><g id="elb7t02jnpsl"><polygon points="364.37 382.96 372.51 393.42 375.43 392.98 366.84 382.96 364.37 382.96" style="fill: rgb(255, 255, 255); opacity: 0.1; transform-origin: 369.9px 388.19px;" class="animable"></polygon></g><g id="el2lcb2900k7g"><rect x="353.88" y="399.39" width="60.82" height="17.76" style="fill: rgb(38, 50, 56); transform-origin: 384.29px 408.27px; transform: rotate(180deg);" class="animable"></rect></g><g id="el27s0ofhkzxf"><rect x="353.88" y="399.39" width="60.82" height="17.76" style="fill: rgb(255, 255, 255); opacity: 0.2; transform-origin: 384.29px 408.27px; transform: rotate(180deg);" class="animable"></rect></g><g id="elgem3ed2cvp"><rect x="360.48" y="391.14" width="55.87" height="2.81" style="fill: rgb(38, 50, 56); transform-origin: 388.415px 392.545px; transform: rotate(180deg);" class="animable"></rect></g><g id="ellgrhy5onoy"><rect x="360.48" y="391.14" width="55.87" height="2.81" style="fill: rgb(255, 255, 255); opacity: 0.2; transform-origin: 388.415px 392.545px; transform: rotate(180deg);" class="animable"></rect></g><g id="el1fz15f15wd6"><rect x="394.9" y="391.14" width="21.45" height="2.81" style="isolation: isolate; opacity: 0.2; transform-origin: 405.625px 392.545px; transform: rotate(180deg);" class="animable"></rect></g><g id="els4db9xxg38p"><rect x="363.77" y="382.9" width="55.87" height="2.81" style="fill: rgb(38, 50, 56); transform-origin: 391.705px 384.305px; transform: rotate(180deg);" class="animable"></rect></g><g id="el25a9isr16pd"><rect x="363.77" y="382.9" width="55.87" height="2.81" style="fill: rgb(255, 255, 255); opacity: 0.2; transform-origin: 391.705px 384.305px; transform: rotate(180deg);" class="animable"></rect></g><g id="ell7y3cue64p"><rect x="398.2" y="382.9" width="21.45" height="2.81" style="isolation: isolate; opacity: 0.2; transform-origin: 408.925px 384.305px; transform: rotate(180deg);" class="animable"></rect></g><g id="el4fm3f03mpco"><rect x="390.78" y="399.39" width="23.92" height="17.76" style="isolation: isolate; opacity: 0.2; transform-origin: 402.74px 408.27px; transform: rotate(180deg);" class="animable"></rect></g></g></svg>
