<svg t="1683766254684" class="icon" viewBox="0 0 1024 1024" version="1.1" xmlns="http://www.w3.org/2000/svg" p-id="1856" width="200" height="200"><path d="M883.24583573 68.33688427c34.1567392 0 63.7415616 29.81888 63.74156267 64.28769493 0 34.45321173-25.74628587 60.7924416-59.91862933 60.7924416H417.7998016c-34.1567392 0-61.8378976-27.96202667-61.83789653-62.4152384 0-34.46881493 27.66555413-62.4152384 61.83789653-62.41523733h462.1848384m7.08412907-62.4152384H417.7998016c-68.51632747 0-124.25313493 56.00207253-124.25313493 124.83047573s55.73680747 124.83047573 124.25313493 124.8304768h469.26896747c68.51632747 0 124.25313493-56.00207253 124.253136-124.8304768s-55.73680747-124.83047573-124.253136-124.83047573zM134.2629792 68.64896c34.1567392 0 63.7415616 29.52240747 63.7415616 63.9912224 0 34.45321173-25.74628587 60.7924416-59.91862827 60.79244267h-1.1546816c-34.1567392 0-61.8378976-27.96202667-61.8378976-62.4152384 0-34.46881493 27.66555413-62.4152384 61.8378976-62.4152384h-5.92944853m7.08413013-62.4308416h-1.1546816c-68.51632747 0-124.25313493 56.00207253-124.253136 124.83047573s55.73680747 124.83047573 124.253136 124.8304768h1.1546816c68.51632747 0 124.25313493-56.00207253 124.25313494-124.8304768s-55.73680747-124.83047573-124.25313494-124.83047573z" fill="#3865ab" p-id="1857"></path><path d="M466.32764907 131.0017824h-46.81142827a15.60380907 15.60380907 0 1 1 0-31.20761813h46.81142827a15.60380907 15.60380907 0 1 1 0 31.20761813zM700.38479253 131.0017824h-156.03809493a15.60380907 15.60380907 0 1 1 0-31.20761813h156.03809493a15.60380907 15.60380907 0 1 1 0 31.20761813z" fill="#fc8800" p-id="1858"></path><path d="M883.24583573 443.32763413c34.1567392 0 63.7415616 29.3351616 63.74156267 63.8039776 0 34.45321173-25.74628587 60.7924416-59.91862933 60.7924416H417.7998016c-34.1567392 0-61.8378976-27.96202667-61.83789653-62.4152384 0-34.46881493 27.66555413-62.4152384 61.83789653-62.41523733h462.1848384m7.08412907-62.43084267H417.7998016c-68.51632747 0-124.25313493 56.00207253-124.25313493 124.8304768s55.73680747 124.83047573 124.25313493 124.83047574h469.26896747c68.51632747 0 124.25313493-56.00207253 124.253136-124.83047574s-55.73680747-124.83047573-124.253136-124.8304768zM134.2629792 443.14038827c34.1567392 0 63.7415616 29.52240747 63.7415616 63.99122346 0 34.45321173-25.74628587 60.7924416-59.91862827 60.7924416h-1.1546816c-34.1567392 0-61.8378976-27.96202667-61.8378976-62.4152384 0-34.46881493 27.66555413-62.4152384 61.8378976-62.41523733h-5.92944853m7.08413013-62.43084267h-1.1546816c-68.51632747 0-124.25313493 56.00207253-124.253136 124.8304768s55.73680747 124.83047573 124.253136 124.83047574h1.1546816c68.51632747 0 124.25313493-56.00207253 124.25313494-124.83047574s-55.73680747-124.83047573-124.25313494-124.8304768z" fill="#fc8800" p-id="1859"></path><path d="M883.24583573 817.8970816c34.1567392 0 63.7415616 29.2571424 63.74156267 63.7259584 0 34.45321173-25.74628587 60.7924416-59.91862933 60.7924416H417.7998016c-34.1567392 0-61.8378976-27.96202667-61.83789653-62.41523733 0-34.46881493 27.66555413-62.4152384 61.83789653-62.4152384h462.1848384m7.08412907-62.4308416H417.7998016c-68.51632747 0-124.25313493 56.00207253-124.25313493 124.83047573s55.73680747 124.83047573 124.25313493 124.83047573h469.26896747c68.51632747 0 124.25313493-56.00207253 124.253136-124.83047573s-55.73680747-124.83047573-124.253136-124.83047573zM134.2629792 817.5694016c34.1567392 0 63.7415616 29.5848224 63.7415616 64.03803413s-25.74628587 60.7924416-59.91862827 60.79244267h-1.1546816c-34.1567392 0-61.8378976-27.96202667-61.8378976-62.4152384 0-34.46881493 27.66555413-62.4152384 61.8378976-62.4152384h-5.92944853m7.08413013-62.41523733h-1.1546816c-68.51632747 0-124.25313493 56.00207253-124.253136 124.83047573s55.73680747 124.83047573 124.253136 124.83047573h1.1546816c68.51632747 0 124.25313493-56.00207253 124.25313494-124.83047573s-55.73680747-124.83047573-124.25313494-124.83047573z" fill="#3865ab" p-id="1860"></path></svg>
